<mxfile host="app.diagrams.net" modified="2023-08-07T08:42:51.160Z" agent="Mozilla/5.0 (Windows NT 10.0; Win64; x64) AppleWebKit/537.36 (KHTML, like Gecko) Chrome/115.0.0.0 Safari/537.36" etag="hOhYseDkJ6NhgBrs6g5V" version="21.6.6" type="github">
  <diagram name="Page-1" id="HtAcLtHkczY1ligh3v8u">
    <mxGraphModel dx="792" dy="434" grid="1" gridSize="10" guides="1" tooltips="1" connect="1" arrows="1" fold="1" page="1" pageScale="1" pageWidth="850" pageHeight="1100" math="0" shadow="0">
      <root>
        <mxCell id="0" />
        <mxCell id="1" parent="0" />
        <mxCell id="pV5TstiQFFHH_e63DpiK-1" value="id" style="rounded=0;whiteSpace=wrap;html=1;fontSize=15;fillColor=#f8cecc;strokeColor=#b85450;" parent="1" vertex="1">
          <mxGeometry x="120" y="120" width="120" height="40" as="geometry" />
        </mxCell>
        <mxCell id="pV5TstiQFFHH_e63DpiK-2" value="name" style="rounded=0;whiteSpace=wrap;html=1;fontSize=15;fillColor=#f8cecc;strokeColor=#b85450;" parent="1" vertex="1">
          <mxGeometry x="240" y="120" width="120" height="40" as="geometry" />
        </mxCell>
        <mxCell id="pV5TstiQFFHH_e63DpiK-3" value="name" style="rounded=0;whiteSpace=wrap;html=1;fontSize=15;fillColor=#f8cecc;strokeColor=#b85450;" parent="1" vertex="1">
          <mxGeometry x="120" y="294" width="120" height="40" as="geometry" />
        </mxCell>
        <mxCell id="pV5TstiQFFHH_e63DpiK-4" value="street" style="rounded=0;whiteSpace=wrap;html=1;fontSize=15;fillColor=#f8cecc;strokeColor=#b85450;" parent="1" vertex="1">
          <mxGeometry x="600" y="120" width="120" height="40" as="geometry" />
        </mxCell>
        <mxCell id="pV5TstiQFFHH_e63DpiK-5" value="city" style="rounded=0;whiteSpace=wrap;html=1;fontSize=15;fillColor=#f8cecc;strokeColor=#b85450;" parent="1" vertex="1">
          <mxGeometry x="480" y="120" width="120" height="40" as="geometry" />
        </mxCell>
        <mxCell id="pV5TstiQFFHH_e63DpiK-6" value="ph-number" style="rounded=0;whiteSpace=wrap;html=1;fontSize=15;fillColor=#f8cecc;strokeColor=#b85450;" parent="1" vertex="1">
          <mxGeometry x="360" y="120" width="120" height="40" as="geometry" />
        </mxCell>
        <mxCell id="pV5TstiQFFHH_e63DpiK-9" value="Musician" style="text;html=1;align=center;verticalAlign=middle;resizable=0;points=[];autosize=1;fontSize=15;fontStyle=1" parent="1" vertex="1">
          <mxGeometry x="110" y="88" width="90" height="30" as="geometry" />
        </mxCell>
        <mxCell id="pV5TstiQFFHH_e63DpiK-10" value="" style="endArrow=none;html=1;rounded=0;fontSize=15;fillColor=#f8cecc;strokeColor=#b85450;" parent="1" edge="1">
          <mxGeometry width="50" height="50" relative="1" as="geometry">
            <mxPoint x="170" y="150" as="sourcePoint" />
            <mxPoint x="190" y="150" as="targetPoint" />
          </mxGeometry>
        </mxCell>
        <mxCell id="pV5TstiQFFHH_e63DpiK-12" value="Instrument" style="text;html=1;align=center;verticalAlign=middle;resizable=0;points=[];autosize=1;fontSize=15;fontStyle=1" parent="1" vertex="1">
          <mxGeometry x="110" y="260" width="100" height="30" as="geometry" />
        </mxCell>
        <mxCell id="pV5TstiQFFHH_e63DpiK-13" value="key" style="rounded=0;whiteSpace=wrap;html=1;fontSize=15;fillColor=#f8cecc;strokeColor=#b85450;" parent="1" vertex="1">
          <mxGeometry x="240" y="294" width="120" height="40" as="geometry" />
        </mxCell>
        <mxCell id="pV5TstiQFFHH_e63DpiK-14" value="" style="endArrow=none;html=1;rounded=0;fontSize=15;fillColor=#f8cecc;strokeColor=#b85450;" parent="1" edge="1">
          <mxGeometry width="50" height="50" relative="1" as="geometry">
            <mxPoint x="160" y="324" as="sourcePoint" />
            <mxPoint x="200" y="324" as="targetPoint" />
          </mxGeometry>
        </mxCell>
        <mxCell id="pV5TstiQFFHH_e63DpiK-15" value="musician_id" style="rounded=0;whiteSpace=wrap;html=1;fontSize=15;fillColor=#f8cecc;strokeColor=#b85450;" parent="1" vertex="1">
          <mxGeometry x="120" y="650" width="120" height="40" as="geometry" />
        </mxCell>
        <mxCell id="pV5TstiQFFHH_e63DpiK-16" value="Instru_musician" style="text;html=1;align=center;verticalAlign=middle;resizable=0;points=[];autosize=1;fontSize=15;fontStyle=1" parent="1" vertex="1">
          <mxGeometry x="110" y="620" width="140" height="30" as="geometry" />
        </mxCell>
        <mxCell id="pV5TstiQFFHH_e63DpiK-17" value="instu_name" style="rounded=0;whiteSpace=wrap;html=1;fontSize=15;fillColor=#f8cecc;strokeColor=#b85450;" parent="1" vertex="1">
          <mxGeometry x="240" y="650" width="120" height="40" as="geometry" />
        </mxCell>
        <mxCell id="pV5TstiQFFHH_e63DpiK-18" value="" style="endArrow=none;html=1;rounded=0;fontSize=15;fillColor=#f8cecc;strokeColor=#b85450;" parent="1" edge="1">
          <mxGeometry width="50" height="50" relative="1" as="geometry">
            <mxPoint x="150" y="680" as="sourcePoint" />
            <mxPoint x="330" y="680" as="targetPoint" />
          </mxGeometry>
        </mxCell>
        <mxCell id="pV5TstiQFFHH_e63DpiK-22" value="title" style="rounded=0;whiteSpace=wrap;html=1;fontSize=15;fillColor=#f8cecc;strokeColor=#b85450;" parent="1" vertex="1">
          <mxGeometry x="120" y="370" width="120" height="40" as="geometry" />
        </mxCell>
        <mxCell id="pV5TstiQFFHH_e63DpiK-23" value="Songs" style="text;html=1;align=center;verticalAlign=middle;resizable=0;points=[];autosize=1;fontSize=15;fontStyle=1" parent="1" vertex="1">
          <mxGeometry x="115" y="340" width="70" height="30" as="geometry" />
        </mxCell>
        <mxCell id="pV5TstiQFFHH_e63DpiK-24" value="author" style="rounded=0;whiteSpace=wrap;html=1;fontSize=15;fillColor=#f8cecc;strokeColor=#b85450;" parent="1" vertex="1">
          <mxGeometry x="240" y="370" width="120" height="40" as="geometry" />
        </mxCell>
        <mxCell id="pV5TstiQFFHH_e63DpiK-25" value="" style="endArrow=none;html=1;rounded=0;fontSize=15;fillColor=#f8cecc;strokeColor=#b85450;" parent="1" edge="1">
          <mxGeometry width="50" height="50" relative="1" as="geometry">
            <mxPoint x="160" y="400" as="sourcePoint" />
            <mxPoint x="210" y="400" as="targetPoint" />
          </mxGeometry>
        </mxCell>
        <mxCell id="pV5TstiQFFHH_e63DpiK-26" value="title_song" style="rounded=0;whiteSpace=wrap;html=1;fontSize=15;fillColor=#f8cecc;strokeColor=#b85450;" parent="1" vertex="1">
          <mxGeometry x="120" y="550" width="120" height="40" as="geometry" />
        </mxCell>
        <mxCell id="pV5TstiQFFHH_e63DpiK-27" value="Musician_Songs" style="text;html=1;align=center;verticalAlign=middle;resizable=0;points=[];autosize=1;fontSize=15;fontStyle=1" parent="1" vertex="1">
          <mxGeometry x="115" y="520" width="140" height="30" as="geometry" />
        </mxCell>
        <mxCell id="pV5TstiQFFHH_e63DpiK-28" value="musician_id" style="rounded=0;whiteSpace=wrap;html=1;fontSize=15;fillColor=#f8cecc;strokeColor=#b85450;" parent="1" vertex="1">
          <mxGeometry x="240" y="550" width="120" height="40" as="geometry" />
        </mxCell>
        <mxCell id="pV5TstiQFFHH_e63DpiK-29" value="" style="endArrow=none;html=1;rounded=0;fontSize=15;fillColor=#f8cecc;strokeColor=#b85450;" parent="1" edge="1">
          <mxGeometry width="50" height="50" relative="1" as="geometry">
            <mxPoint x="150" y="580" as="sourcePoint" />
            <mxPoint x="340" y="580" as="targetPoint" />
          </mxGeometry>
        </mxCell>
        <mxCell id="pV5TstiQFFHH_e63DpiK-31" value="" style="endArrow=classic;html=1;rounded=0;entryX=0;entryY=0.25;entryDx=0;entryDy=0;exitX=0;exitY=0.75;exitDx=0;exitDy=0;entryPerimeter=0;fontSize=15;fillColor=#f8cecc;strokeColor=#b85450;" parent="1" source="pV5TstiQFFHH_e63DpiK-15" target="pV5TstiQFFHH_e63DpiK-1" edge="1">
          <mxGeometry width="50" height="50" relative="1" as="geometry">
            <mxPoint x="300" y="730" as="sourcePoint" />
            <mxPoint x="160" y="590" as="targetPoint" />
            <Array as="points">
              <mxPoint x="40" y="680" />
              <mxPoint x="40" y="130" />
            </Array>
          </mxGeometry>
        </mxCell>
        <mxCell id="pV5TstiQFFHH_e63DpiK-32" value="id" style="rounded=0;whiteSpace=wrap;html=1;fontSize=15;fillColor=#f8cecc;strokeColor=#b85450;" parent="1" vertex="1">
          <mxGeometry x="120" y="212" width="120" height="40" as="geometry" />
        </mxCell>
        <mxCell id="pV5TstiQFFHH_e63DpiK-33" value="title" style="rounded=0;whiteSpace=wrap;html=1;fontSize=15;fillColor=#f8cecc;strokeColor=#b85450;" parent="1" vertex="1">
          <mxGeometry x="240" y="212" width="120" height="40" as="geometry" />
        </mxCell>
        <mxCell id="pV5TstiQFFHH_e63DpiK-34" value="copy right date" style="rounded=0;whiteSpace=wrap;html=1;fontSize=15;fillColor=#f8cecc;strokeColor=#b85450;" parent="1" vertex="1">
          <mxGeometry x="360" y="212" width="120" height="40" as="geometry" />
        </mxCell>
        <mxCell id="pV5TstiQFFHH_e63DpiK-35" value="" style="endArrow=none;html=1;rounded=0;fontSize=15;fillColor=#f8cecc;strokeColor=#b85450;" parent="1" edge="1">
          <mxGeometry width="50" height="50" relative="1" as="geometry">
            <mxPoint x="170" y="242" as="sourcePoint" />
            <mxPoint x="190" y="242" as="targetPoint" />
          </mxGeometry>
        </mxCell>
        <mxCell id="pV5TstiQFFHH_e63DpiK-36" value="Albums" style="text;html=1;align=center;verticalAlign=middle;resizable=0;points=[];autosize=1;fontSize=15;fontStyle=1" parent="1" vertex="1">
          <mxGeometry x="115" y="182" width="80" height="30" as="geometry" />
        </mxCell>
        <mxCell id="pV5TstiQFFHH_e63DpiK-37" value="music_id" style="rounded=0;whiteSpace=wrap;html=1;fontSize=15;fillColor=#f8cecc;strokeColor=#b85450;" parent="1" vertex="1">
          <mxGeometry x="480" y="212" width="120" height="40" as="geometry" />
        </mxCell>
        <mxCell id="pV5TstiQFFHH_e63DpiK-38" value="" style="endArrow=none;dashed=1;html=1;rounded=0;fontSize=15;fillColor=#f8cecc;strokeColor=#b85450;" parent="1" edge="1">
          <mxGeometry width="50" height="50" relative="1" as="geometry">
            <mxPoint x="510" y="242" as="sourcePoint" />
            <mxPoint x="570" y="242" as="targetPoint" />
          </mxGeometry>
        </mxCell>
        <mxCell id="pV5TstiQFFHH_e63DpiK-39" value="" style="endArrow=classic;html=1;rounded=0;entryX=0;entryY=0.75;entryDx=0;entryDy=0;exitX=0.328;exitY=-0.016;exitDx=0;exitDy=0;exitPerimeter=0;fontSize=15;fillColor=#f8cecc;strokeColor=#b85450;" parent="1" source="pV5TstiQFFHH_e63DpiK-37" target="pV5TstiQFFHH_e63DpiK-1" edge="1">
          <mxGeometry width="50" height="50" relative="1" as="geometry">
            <mxPoint x="520" y="400" as="sourcePoint" />
            <mxPoint x="570" y="610" as="targetPoint" />
            <Array as="points">
              <mxPoint x="520" y="180" />
              <mxPoint x="300" y="180" />
              <mxPoint x="100" y="180" />
              <mxPoint x="100" y="150" />
            </Array>
          </mxGeometry>
        </mxCell>
        <mxCell id="pV5TstiQFFHH_e63DpiK-40" value="title" style="rounded=0;whiteSpace=wrap;html=1;fontSize=15;fillColor=#f8cecc;strokeColor=#b85450;" parent="1" vertex="1">
          <mxGeometry x="120" y="460" width="120" height="40" as="geometry" />
        </mxCell>
        <mxCell id="pV5TstiQFFHH_e63DpiK-41" value="album_id" style="rounded=0;whiteSpace=wrap;html=1;fontSize=15;fillColor=#f8cecc;strokeColor=#b85450;" parent="1" vertex="1">
          <mxGeometry x="240" y="460" width="120" height="40" as="geometry" />
        </mxCell>
        <mxCell id="pV5TstiQFFHH_e63DpiK-43" value="" style="endArrow=none;html=1;rounded=0;fontSize=15;fillColor=#f8cecc;strokeColor=#b85450;" parent="1" edge="1">
          <mxGeometry width="50" height="50" relative="1" as="geometry">
            <mxPoint x="170" y="490" as="sourcePoint" />
            <mxPoint x="190" y="490" as="targetPoint" />
          </mxGeometry>
        </mxCell>
        <mxCell id="pV5TstiQFFHH_e63DpiK-44" value="Albums_songs" style="text;html=1;align=center;verticalAlign=middle;resizable=0;points=[];autosize=1;fontSize=15;fontStyle=1" parent="1" vertex="1">
          <mxGeometry x="115" y="430" width="130" height="30" as="geometry" />
        </mxCell>
        <mxCell id="pV5TstiQFFHH_e63DpiK-47" value="" style="endArrow=none;dashed=1;html=1;rounded=0;fontSize=15;fillColor=#f8cecc;strokeColor=#b85450;" parent="1" edge="1">
          <mxGeometry width="50" height="50" relative="1" as="geometry">
            <mxPoint x="270" y="488" as="sourcePoint" />
            <mxPoint x="330" y="488" as="targetPoint" />
          </mxGeometry>
        </mxCell>
        <mxCell id="pV5TstiQFFHH_e63DpiK-51" value="" style="endArrow=classic;html=1;rounded=0;entryX=0.75;entryY=1;entryDx=0;entryDy=0;exitX=1;exitY=0.5;exitDx=0;exitDy=0;fontSize=15;fillColor=#f8cecc;strokeColor=#b85450;" parent="1" source="pV5TstiQFFHH_e63DpiK-17" target="pV5TstiQFFHH_e63DpiK-3" edge="1">
          <mxGeometry width="50" height="50" relative="1" as="geometry">
            <mxPoint x="340" y="650" as="sourcePoint" />
            <mxPoint x="110" y="221" as="targetPoint" />
            <Array as="points">
              <mxPoint x="440" y="670" />
              <mxPoint x="440" y="520" />
              <mxPoint x="440" y="350" />
              <mxPoint x="430" y="350" />
              <mxPoint x="210" y="350" />
            </Array>
          </mxGeometry>
        </mxCell>
        <mxCell id="pV5TstiQFFHH_e63DpiK-52" value="" style="endArrow=classic;html=1;rounded=0;entryX=0;entryY=0.5;entryDx=0;entryDy=0;fontSize=15;fillColor=#f8cecc;strokeColor=#b85450;" parent="1" target="pV5TstiQFFHH_e63DpiK-22" edge="1">
          <mxGeometry width="50" height="50" relative="1" as="geometry">
            <mxPoint x="120" y="480" as="sourcePoint" />
            <mxPoint x="170" y="430" as="targetPoint" />
            <Array as="points">
              <mxPoint x="100" y="480" />
              <mxPoint x="100" y="390" />
            </Array>
          </mxGeometry>
        </mxCell>
        <mxCell id="pV5TstiQFFHH_e63DpiK-53" value="" style="endArrow=classic;html=1;rounded=0;entryX=0;entryY=0.5;entryDx=0;entryDy=0;fontSize=15;fillColor=#f8cecc;strokeColor=#b85450;" parent="1" target="pV5TstiQFFHH_e63DpiK-1" edge="1">
          <mxGeometry width="50" height="50" relative="1" as="geometry">
            <mxPoint x="280" y="590" as="sourcePoint" />
            <mxPoint x="80" y="137.19625854492188" as="targetPoint" />
            <Array as="points">
              <mxPoint x="280" y="610" />
              <mxPoint x="60" y="610" />
              <mxPoint x="60" y="140" />
            </Array>
          </mxGeometry>
        </mxCell>
        <mxCell id="pV5TstiQFFHH_e63DpiK-54" value="" style="endArrow=classic;html=1;rounded=0;exitX=0.646;exitY=1.027;exitDx=0;exitDy=0;exitPerimeter=0;entryX=0;entryY=0.25;entryDx=0;entryDy=0;fontSize=15;fillColor=#f8cecc;strokeColor=#b85450;" parent="1" source="pV5TstiQFFHH_e63DpiK-41" target="pV5TstiQFFHH_e63DpiK-32" edge="1">
          <mxGeometry width="50" height="50" relative="1" as="geometry">
            <mxPoint x="410" y="450" as="sourcePoint" />
            <mxPoint x="100" y="230" as="targetPoint" />
            <Array as="points">
              <mxPoint x="318" y="520" />
              <mxPoint x="400" y="520" />
              <mxPoint x="400" y="360" />
              <mxPoint x="400" y="260" />
              <mxPoint x="100" y="260" />
              <mxPoint x="100" y="222" />
            </Array>
          </mxGeometry>
        </mxCell>
        <mxCell id="pV5TstiQFFHH_e63DpiK-55" value="" style="endArrow=classic;html=1;rounded=0;entryX=0;entryY=0.25;entryDx=0;entryDy=0;exitX=0;exitY=0.75;exitDx=0;exitDy=0;fontSize=15;fillColor=#f8cecc;strokeColor=#b85450;" parent="1" source="pV5TstiQFFHH_e63DpiK-26" target="pV5TstiQFFHH_e63DpiK-22" edge="1">
          <mxGeometry width="50" height="50" relative="1" as="geometry">
            <mxPoint x="160" y="590" as="sourcePoint" />
            <mxPoint x="210" y="540" as="targetPoint" />
            <Array as="points">
              <mxPoint x="90" y="580" />
              <mxPoint x="90" y="380" />
            </Array>
          </mxGeometry>
        </mxCell>
      </root>
    </mxGraphModel>
  </diagram>
</mxfile>
